<mxfile host="app.diagrams.net" modified="2024-01-19T19:03:54.050Z" agent="Mozilla/5.0 (Macintosh; Intel Mac OS X 10_15_7) AppleWebKit/537.36 (KHTML, like Gecko) Chrome/120.0.0.0 Safari/537.36" etag="_pxHFj8d1sKsgR1JBGBv" version="22.1.21" type="device">
  <diagram name="Page-1" id="LA-4UwxGit6Bq-E7r5q4">
    <mxGraphModel dx="1306" dy="847" grid="1" gridSize="10" guides="1" tooltips="1" connect="1" arrows="1" fold="1" page="1" pageScale="1" pageWidth="850" pageHeight="1100" math="0" shadow="0">
      <root>
        <mxCell id="0" />
        <mxCell id="1" parent="0" />
        <mxCell id="fA359OJTS9p5ZClA1rUT-1" value="" style="whiteSpace=wrap;html=1;aspect=fixed;" vertex="1" parent="1">
          <mxGeometry x="180" y="130" width="80" height="80" as="geometry" />
        </mxCell>
        <mxCell id="fA359OJTS9p5ZClA1rUT-2" value="" style="ellipse;whiteSpace=wrap;html=1;aspect=fixed;fillColor=#f8cecc;strokeColor=#b85450;" vertex="1" parent="1">
          <mxGeometry x="380" y="50" width="80" height="80" as="geometry" />
        </mxCell>
        <mxCell id="fA359OJTS9p5ZClA1rUT-3" value="" style="ellipse;whiteSpace=wrap;html=1;aspect=fixed;fillColor=#f8cecc;strokeColor=#b85450;" vertex="1" parent="1">
          <mxGeometry x="380" y="200" width="80" height="80" as="geometry" />
        </mxCell>
        <mxCell id="fA359OJTS9p5ZClA1rUT-4" value="" style="ellipse;whiteSpace=wrap;html=1;aspect=fixed;" vertex="1" parent="1">
          <mxGeometry x="590" y="50" width="80" height="80" as="geometry" />
        </mxCell>
        <mxCell id="fA359OJTS9p5ZClA1rUT-5" value="" style="ellipse;whiteSpace=wrap;html=1;aspect=fixed;" vertex="1" parent="1">
          <mxGeometry x="590" y="200" width="80" height="80" as="geometry" />
        </mxCell>
        <mxCell id="fA359OJTS9p5ZClA1rUT-6" value="" style="endArrow=none;html=1;rounded=0;" edge="1" parent="1" source="fA359OJTS9p5ZClA1rUT-1" target="fA359OJTS9p5ZClA1rUT-2">
          <mxGeometry width="50" height="50" relative="1" as="geometry">
            <mxPoint x="410" y="460" as="sourcePoint" />
            <mxPoint x="460" y="410" as="targetPoint" />
          </mxGeometry>
        </mxCell>
        <mxCell id="fA359OJTS9p5ZClA1rUT-7" value="" style="endArrow=none;html=1;rounded=0;" edge="1" parent="1" source="fA359OJTS9p5ZClA1rUT-1" target="fA359OJTS9p5ZClA1rUT-3">
          <mxGeometry width="50" height="50" relative="1" as="geometry">
            <mxPoint x="270" y="164" as="sourcePoint" />
            <mxPoint x="393" y="115" as="targetPoint" />
          </mxGeometry>
        </mxCell>
        <mxCell id="fA359OJTS9p5ZClA1rUT-8" value="" style="endArrow=none;html=1;rounded=0;" edge="1" parent="1" source="fA359OJTS9p5ZClA1rUT-2" target="fA359OJTS9p5ZClA1rUT-4">
          <mxGeometry width="50" height="50" relative="1" as="geometry">
            <mxPoint x="270" y="194" as="sourcePoint" />
            <mxPoint x="392" y="237" as="targetPoint" />
          </mxGeometry>
        </mxCell>
        <mxCell id="fA359OJTS9p5ZClA1rUT-9" value="" style="endArrow=none;html=1;rounded=0;" edge="1" parent="1" source="fA359OJTS9p5ZClA1rUT-2" target="fA359OJTS9p5ZClA1rUT-5">
          <mxGeometry width="50" height="50" relative="1" as="geometry">
            <mxPoint x="470" y="100" as="sourcePoint" />
            <mxPoint x="600" y="100" as="targetPoint" />
          </mxGeometry>
        </mxCell>
        <mxCell id="fA359OJTS9p5ZClA1rUT-10" value="" style="endArrow=none;html=1;rounded=0;" edge="1" parent="1" source="fA359OJTS9p5ZClA1rUT-3" target="fA359OJTS9p5ZClA1rUT-4">
          <mxGeometry width="50" height="50" relative="1" as="geometry">
            <mxPoint x="463" y="123" as="sourcePoint" />
            <mxPoint x="607" y="227" as="targetPoint" />
          </mxGeometry>
        </mxCell>
        <mxCell id="fA359OJTS9p5ZClA1rUT-11" value="" style="endArrow=none;html=1;rounded=0;" edge="1" parent="1" source="fA359OJTS9p5ZClA1rUT-3" target="fA359OJTS9p5ZClA1rUT-5">
          <mxGeometry width="50" height="50" relative="1" as="geometry">
            <mxPoint x="463" y="227" as="sourcePoint" />
            <mxPoint x="607" y="123" as="targetPoint" />
          </mxGeometry>
        </mxCell>
        <mxCell id="fA359OJTS9p5ZClA1rUT-12" value="" style="html=1;shadow=0;dashed=0;align=center;verticalAlign=middle;shape=mxgraph.arrows2.arrow;dy=0.6;dx=40;direction=south;notch=0;" vertex="1" parent="1">
          <mxGeometry x="390" y="350" width="70" height="100" as="geometry" />
        </mxCell>
        <mxCell id="fA359OJTS9p5ZClA1rUT-13" value="" style="shape=flexArrow;endArrow=classic;startArrow=classic;html=1;rounded=0;" edge="1" parent="1">
          <mxGeometry width="100" height="100" relative="1" as="geometry">
            <mxPoint x="480" y="70" as="sourcePoint" />
            <mxPoint x="570" y="70" as="targetPoint" />
          </mxGeometry>
        </mxCell>
        <mxCell id="fA359OJTS9p5ZClA1rUT-14" value="" style="shape=flexArrow;endArrow=classic;startArrow=classic;html=1;rounded=0;" edge="1" parent="1">
          <mxGeometry width="100" height="100" relative="1" as="geometry">
            <mxPoint x="480" y="260" as="sourcePoint" />
            <mxPoint x="570" y="260" as="targetPoint" />
          </mxGeometry>
        </mxCell>
        <mxCell id="fA359OJTS9p5ZClA1rUT-15" value="" style="whiteSpace=wrap;html=1;aspect=fixed;" vertex="1" parent="1">
          <mxGeometry x="280" y="530" width="80" height="80" as="geometry" />
        </mxCell>
        <mxCell id="fA359OJTS9p5ZClA1rUT-16" value="" style="ellipse;whiteSpace=wrap;html=1;aspect=fixed;" vertex="1" parent="1">
          <mxGeometry x="510" y="450" width="80" height="80" as="geometry" />
        </mxCell>
        <mxCell id="fA359OJTS9p5ZClA1rUT-17" value="" style="ellipse;whiteSpace=wrap;html=1;aspect=fixed;" vertex="1" parent="1">
          <mxGeometry x="510" y="610" width="80" height="80" as="geometry" />
        </mxCell>
        <mxCell id="fA359OJTS9p5ZClA1rUT-18" value="" style="endArrow=none;html=1;rounded=0;" edge="1" parent="1" source="fA359OJTS9p5ZClA1rUT-15" target="fA359OJTS9p5ZClA1rUT-16">
          <mxGeometry width="50" height="50" relative="1" as="geometry">
            <mxPoint x="400" y="520" as="sourcePoint" />
            <mxPoint x="450" y="470" as="targetPoint" />
          </mxGeometry>
        </mxCell>
        <mxCell id="fA359OJTS9p5ZClA1rUT-19" value="" style="endArrow=none;html=1;rounded=0;" edge="1" parent="1" source="fA359OJTS9p5ZClA1rUT-15" target="fA359OJTS9p5ZClA1rUT-17">
          <mxGeometry width="50" height="50" relative="1" as="geometry">
            <mxPoint x="370" y="566" as="sourcePoint" />
            <mxPoint x="522" y="513" as="targetPoint" />
          </mxGeometry>
        </mxCell>
      </root>
    </mxGraphModel>
  </diagram>
</mxfile>
